<svg width="1400" height="300" viewBox="0 0 1400 300" xmlns="http://www.w3.org/2000/svg">
<defs><linearGradient id="g" x1="0" y1="0" x2="1" y2="1"><stop stop-color="#6366F1"/><stop offset="1" stop-color="#A855F7"/></linearGradient></defs>
<rect width="1400" height="300" rx="28" fill="#F8FAFC"/>
<text x="60" y="58" fill="#0F172A" font-family="Inter,Arial,sans-serif" font-size="28" font-weight="800">The student flow</text>
<g transform="translate(45 100)"><rect width="225" height="115" rx="20" fill="white" stroke="#E2E8F0"/><circle cx="34" cy="34" r="16" fill="url(#g)"/><text x="34" y="40" text-anchor="middle" fill="white" font-family="Inter,Arial,sans-serif" font-size="12" font-weight="800">1</text><text x="65" y="40" fill="#0F172A" font-family="Inter,Arial,sans-serif" font-size="14" font-weight="800">SCAN QR</text><text x="24" y="78" fill="#64748B" font-family="Inter,Arial,sans-serif" font-size="13">Temporary session</text></g><g transform="translate(315 100)"><rect width="225" height="115" rx="20" fill="white" stroke="#E2E8F0"/><circle cx="34" cy="34" r="16" fill="url(#g)"/><text x="34" y="40" text-anchor="middle" fill="white" font-family="Inter,Arial,sans-serif" font-size="12" font-weight="800">2</text><text x="65" y="40" fill="#0F172A" font-family="Inter,Arial,sans-serif" font-size="14" font-weight="800">UPLOAD PDF</text><text x="24" y="78" fill="#64748B" font-family="Inter,Arial,sans-serif" font-size="13">PDF only • 10 MB</text></g><g transform="translate(585 100)"><rect width="225" height="115" rx="20" fill="white" stroke="#E2E8F0"/><circle cx="34" cy="34" r="16" fill="url(#g)"/><text x="34" y="40" text-anchor="middle" fill="white" font-family="Inter,Arial,sans-serif" font-size="12" font-weight="800">3</text><text x="65" y="40" fill="#0F172A" font-family="Inter,Arial,sans-serif" font-size="14" font-weight="800">CHOOSE OPTIONS</text><text x="24" y="78" fill="#64748B" font-family="Inter,Arial,sans-serif" font-size="13">Copies • color • paper</text></g><g transform="translate(855 100)"><rect width="225" height="115" rx="20" fill="white" stroke="#E2E8F0"/><circle cx="34" cy="34" r="16" fill="url(#g)"/><text x="34" y="40" text-anchor="middle" fill="white" font-family="Inter,Arial,sans-serif" font-size="12" font-weight="800">4</text><text x="65" y="40" fill="#0F172A" font-family="Inter,Arial,sans-serif" font-size="14" font-weight="800">SUBMIT</text><text x="24" y="78" fill="#64748B" font-family="Inter,Arial,sans-serif" font-size="13">Server-side pricing</text></g><g transform="translate(1125 100)"><rect width="225" height="115" rx="20" fill="white" stroke="#E2E8F0"/><circle cx="34" cy="34" r="16" fill="url(#g)"/><text x="34" y="40" text-anchor="middle" fill="white" font-family="Inter,Arial,sans-serif" font-size="12" font-weight="800">5</text><text x="65" y="40" fill="#0F172A" font-family="Inter,Arial,sans-serif" font-size="14" font-weight="800">COLLECT</text><text x="24" y="78" fill="#64748B" font-family="Inter,Arial,sans-serif" font-size="13">Queue → print</text></g>
</svg>